#!OML:ASF H:\Punching\Project 1\Capture day 1\Session 1\female.ASF
:FULLY-SPECIFIED
:DEGREES
2075
root 3.15983 15.3965 7.1564 12.3108 -14.7673 0.029635
lowerback -1.69153 0.321573 -2.02594
upperback -5.04721 0.394086 -0.0696975
thorax -4.26659 0.269313 1.05447
lowerneck -7.87195 7.38012 15.2156
upperneck 19.7898 10.4501 -12.641
head 8.94494 4.96502 -5.73187
rclavicle 1.3977e-016 -2.68359e-015
rhumerus -39.6144 0.387302 -70.0241
rradius 83.1924
rwrist -3.77987
rhand -6.32543 -8.39147
rfingers 7.12502
rthumb 19.5195 -37.4316
lclavicle 1.3977e-016 -2.68359e-015
lhumerus -37.8099 -0.908183 71.7621
lradius 98.5016
lwrist -4.5668
lhand -1.19044 20.724
lfingers 7.12502
lthumb 24.4497 49.1837
rfemur -35.8466 -2.88251 12.8209
rtibia 57.8596
rfoot -17.4184 -8.0084
rtoes -9.81816
lfemur -11.0916 -1.94094 -25.0615
ltibia 25.9927
lfoot -25.2189 23.9732
ltoes 2.36189
2076
root 3.14088 15.3959 7.18569 12.2353 -14.3625 0.0741561
lowerback -1.63102 0.254776 -1.92385
upperback -5.03724 0.304503 -0.0790557
thorax -4.28632 0.220582 0.989304
lowerneck -7.85119 7.34729 15.1226
upperneck 19.9064 10.4278 -12.6181
head 8.9702 4.9505 -5.71447
rclavicle -2.91499e-014 6.95746e-015
rhumerus -39.2538 0.716461 -69.6907
rradius 85.2532
rwrist -4.11155
rhand -6.59974 -8.14842
rfingers 7.12502
rthumb 19.2557 -37.2151
lclavicle -2.91499e-014 6.95746e-015
lhumerus -37.0727 -1.44501 71.5568
lradius 100.478
lwrist -4.35193
lhand -1.65401 20.5847
lfingers 7.12502
lthumb 24.0052 49.1037
rfemur -36.5781 -2.95239 12.6431
rtibia 57.7892
rfoot -17.2452 -7.74924
rtoes -10.0424
lfemur -10.8281 -1.99575 -24.9838
ltibia 25.8081
lfoot -25.0597 23.6993
ltoes 1.88017
2077
root 3.12048 15.3964 7.21702 12.1717 -13.9319 0.0931504
lowerback -1.57695 0.187091 -1.7942
upperback -5.03021 0.21473 -0.0746817
thorax -4.30572 0.170982 0.923025
lowerneck -7.83 7.31224 15.0178
upperneck 20.0301 10.4053 -12.5962
head 8.99718 4.9349 -5.69566
rclavicle 1.7785e-014 9.93923e-017
rhumerus -38.8563 1.05812 -69.3441
rradius 87.238
rwrist -4.41163
rhand -6.97246 -7.8658
rfingers 7.12502
rthumb 18.8973 -36.9678
lclavicle 1.7785e-014 9.93923e-017
lhumerus -36.3174 -1.97803 71.3778
lradius 102.389
lwrist -4.24088
lhand -2.09372 20.4313
lfingers 7.12502
lthumb 23.5835 49.0052
rfemur -37.2262 -2.95612 12.4461
rtibia 57.3953
rfoot -17.0006 -7.54058
rtoes -10.1971
lfemur -10.5564 -2.06755 -24.871
ltibia 25.6083
lfoot -24.9053 23.425
ltoes 1.40779
2078
root 3.09846 15.3977 7.24995 12.1157 -13.4736 0.095265
lowerback -1.52385 0.115665 -1.65279
upperback -5.02458 0.120739 -0.0563655
thorax -4.32632 0.119134 0.864753
lowerneck -7.81783 7.27883 14.9093
upperneck 20.1647 10.3867 -12.5792
head 9.03031 4.92007 -5.67747
rclavicle 1.76949e-014 1.82882e-014
rhumerus -38.4045 1.40272 -68.9828
rradius 89.121
rwrist -4.62396
rhand -7.42982 -7.50119
rfingers 7.12502
rthumb 18.4574 -36.6455
lclavicle 1.76949e-014 1.82882e-014
lhumerus -35.55 -2.49901 71.2272
lradius 104.241
lwrist -4.22685
lhand -2.52757 20.2477
lfingers 7.12502
lthumb 23.1673 48.8745
rfemur -37.7895 -2.8944 12.2155
rtibia 56.7015
rfoot -16.6876 -7.39026
rtoes -10.2378
lfemur -10.2731 -2.15469 -24.7305
ltibia 25.3873
lfoot -24.757 23.1436
ltoes 0.96622
2079
root 3.07447 15.3994 7.28413 12.061 -12.9924 0.0914504
lowerback -1.46555 0.0452368 -1.51659
upperback -5.02026 0.0285025 -0.0268594
thorax -4.35178 0.0686603 0.821023
lowerneck -7.8182 7.24325 14.7946
upperneck 20.3121 10.3661 -12.5639
head 9.06966 4.90316 -5.65905
rclavicle 1.31182e-014 2.38542e-015
rhumerus -37.8964 1.72713 -68.6014
rradius 90.8914
rwrist -4.71914
rhand -7.96278 -7.04106
rfingers 7.12502
rthumb 17.9447 -36.2332
lclavicle 1.31182e-014 2.38542e-015
lhumerus -34.7703 -3.01779 71.1134
lradius 106.037
lwrist -4.28573
lhand -2.96215 20.0453
lfingers 7.12502
lthumb 22.7503 48.724
rfemur -38.2695 -2.762 11.9355
rtibia 55.7393
rfoot -16.312 -7.3108
rtoes -10.1662
lfemur -9.97266 -2.25145 -24.5728
ltibia 25.1395
lfoot -24.6095 22.8545
ltoes 0.54846
2080
root 3.04849 15.4013 7.31978 11.9993 -12.4885 0.0906727
lowerback -1.39869 -0.0242558 -1.39505
upperback -5.01412 -0.0622657 0.0110122
thorax -4.38063 0.0197089 0.794243
lowerneck -7.8363 7.20498 14.6784
upperneck 20.4721 10.3421 -12.5533
head 9.11635 4.88339 -5.64236
rclavicle -5.28022e-017 2.98177e-016
rhumerus -37.3262 2.02331 -68.2037
rradius 92.5465
rwrist -4.70312
rhand -8.58927 -6.4893
rfingers 7.12502
rthumb 17.3418 -35.7356
lclavicle -5.28022e-017 2.98177e-016
lhumerus -33.9776 -3.53742 71.0372
lradius 107.776
lwrist -4.38071
lhand -3.45693 19.7901
lfingers 7.12502
lthumb 22.2754 48.5262
rfemur -38.6597 -2.56674 11.5931
rtibia 54.5435
rfoot -15.9064 -7.30919
rtoes -9.96798
lfemur -9.64452 -2.35433 -24.4075
ltibia 24.8607
lfoot -24.4661 22.5527
ltoes 0.158635
2081
root 3.02026 15.403 7.35662 11.9315 -11.9638 0.102387
lowerback -1.32964 -0.0899714 -1.29955
upperback -5.0042 -0.147896 0.0542989
thorax -4.4072 -0.0255382 0.787657
lowerneck -7.8681 7.15794 14.5461
upperneck 20.6368 10.306 -12.5377
head 9.16429 4.85664 -5.62251
rclavicle -1.79652e-014 -1.94312e-014
rhumerus -36.6917 2.27764 -67.7891
rradius 94.0961
rwrist -4.60104
rhand -9.30112 -5.87882
rfingers 7.12502
rthumb 16.6566 -35.1841
lclavicle -1.79652e-014 -1.94312e-014
lhumerus -33.1582 -4.07325 71.0042
lradius 109.454
lwrist -4.47314
lhand -4.02357 19.4903
lfingers 7.12502
lthumb 21.7313 48.2905
rfemur -38.9699 -2.30896 11.1775
rtibia 53.1522
rfoot -15.5042 -7.40534
rtoes -9.64843
lfemur -9.29084 -2.46223 -24.243
ltibia 24.5459
lfoot -24.3198 22.2378
ltoes -0.214579
